<?xml version="1.0" encoding="utf-8"?>
<svg xmlns="http://www.w3.org/2000/svg" viewBox="0 0 26 26" width="208" height="208">
  <path d="M2.3125 0L0 2.3125L5.21875 5.96875L5.96875 5.21875 Z M 19.625 0.15625C17.996094 0.234375 16.429688 0.945313 15.21875 2.15625L10.53125 6.84375L12.84375 9.15625L17.53125 4.46875C18.167969 3.832031 18.964844 3.441406 19.78125 3.40625C20.335938 3.378906 21.121094 3.496094 21.8125 4.1875C22.457031 4.832031 22.59375 5.582031 22.59375 6.09375C22.59375 6.949219 22.203125 7.800781 21.53125 8.46875L16.84375 13.15625L19.15625 15.46875L23.84375 10.78125C25.117188 9.507813 25.84375 7.804688 25.84375 6.09375C25.84375 4.503906 25.242188 2.992188 24.125 1.875C22.929688 0.683594 21.324219 0.078125 19.625 0.15625 Z M 6.84375 10.53125L2.15625 15.21875C0.882813 16.492188 0.15625 18.195313 0.15625 19.90625C0.15625 21.496094 0.757813 23.007813 1.875 24.125C3.070313 25.316406 4.675781 25.921875 6.375 25.84375C8.003906 25.765625 9.570313 25.054688 10.78125 23.84375L15.46875 19.15625L13.15625 16.84375L8.46875 21.53125C7.832031 22.167969 7.035156 22.558594 6.21875 22.59375C5.664063 22.621094 4.878906 22.503906 4.1875 21.8125C3.542969 21.167969 3.40625 20.417969 3.40625 19.90625C3.40625 19.050781 3.796875 18.199219 4.46875 17.53125L9.15625 12.84375 Z M 20.78125 20.03125L20.03125 20.78125L23.6875 26L26 23.6875Z" fill="#5B5B5B" />
</svg>