<?xml version="1.0" encoding="utf-8"?>
<svg xmlns="http://www.w3.org/2000/svg" viewBox="0 0 26 26" width="208" height="208">
  <path d="M13 2C6.9375 2 2 6.9375 2 13C2 19.0625 6.9375 24 13 24C19.0625 24 24 19.0625 24 13C24 6.9375 19.0625 2 13 2 Z M 13 4C17.980469 4 22 8.019531 22 13C22 17.980469 17.980469 22 13 22C8.019531 22 4 17.980469 4 13C4 8.019531 8.019531 4 13 4 Z M 11 9.09375L10.59375 13.8125C11.195313 13.710938 11.695313 13.6875 12.09375 13.6875C13.292969 13.6875 13.90625 14.105469 13.90625 14.90625C13.90625 16.007813 12.8125 16.1875 12.3125 16.1875C11.710938 16.1875 11.101563 16.085938 10.5 15.6875L10.5 17.3125C11.101563 17.613281 11.6875 17.6875 12.6875 17.6875C13.6875 17.6875 15.90625 17.210938 15.90625 14.8125C15.90625 12.710938 13.992188 12.3125 13.09375 12.3125L12.3125 12.3125L12.40625 10.59375L15.40625 10.59375L15.40625 9.09375Z" fill="#ff4c00" />
</svg>