<?xml version="1.0" encoding="utf-8"?>
<svg xmlns="http://www.w3.org/2000/svg" viewBox="0 0 26 26" width="208" height="208">
  <path d="M13 2C6.9375 2 2 6.9375 2 13C2 19.0625 6.9375 24 13 24C19.0625 24 24 19.0625 24 13C24 6.9375 19.0625 2 13 2 Z M 13 4C17.980469 4 22 8.019531 22 13C22 17.980469 17.980469 22 13 22C8.019531 22 4 17.980469 4 13C4 8.019531 8.019531 4 13 4 Z M 13.8125 8.8125C12.8125 8.8125 10 9.394531 10 13.59375C10 14.394531 10.101563 17.5 13 17.5C15.101563 17.5 15.90625 15.695313 15.90625 14.59375C15.90625 14.195313 15.695313 12.007813 13.59375 11.90625C12.792969 11.90625 12.210938 12.085938 11.8125 12.6875C11.8125 10.988281 12.804688 10.09375 13.90625 10.09375C14.40625 10.09375 14.914063 10.300781 15.3125 10.5L15.3125 9C15.011719 8.898438 14.414063 8.8125 13.8125 8.8125 Z M 12.75 13.3125C12.863281 13.292969 12.949219 13.3125 13 13.3125C13.699219 13.3125 14.09375 13.789063 14.09375 14.6875C14.09375 15.6875 13.398438 16.09375 13 16.09375C12.898438 16.09375 11.90625 15.992188 11.90625 14.59375C11.90625 13.617188 12.414063 13.375 12.75 13.3125Z" fill="#ff4c00" />
</svg>