<?xml version="1.0" encoding="utf-8"?>
<svg xmlns="http://www.w3.org/2000/svg" viewBox="0 0 26 26" width="208" height="208">
  <path d="M13 2C6.898438 2 2 6.898438 2 13C2 19.101563 6.898438 24 13 24C19.101563 24 24 19.101563 24 13C24 6.898438 19.101563 2 13 2 Z M 12.5 17.699219C11.699219 17.699219 11 17.601563 10.5 17.300781L10.5 15.699219C11.101563 16.101563 11.699219 16.199219 12.300781 16.199219C12.800781 16.199219 13.898438 16 13.898438 14.898438C13.898438 14.101563 13.300781 13.699219 12.101563 13.699219C11.699219 13.699219 11.199219 13.699219 10.601563 13.800781L11 9.101563L15.398438 9.101563L15.398438 10.601563L12.398438 10.601563L12.300781 12.300781C12.601563 12.300781 12.898438 12.300781 13.101563 12.300781C14 12.300781 15.898438 12.699219 15.898438 14.800781C15.800781 17.199219 13.5 17.699219 12.5 17.699219Z" fill="#0c8918" />
</svg>