<?xml version="1.0" encoding="utf-8"?>
<svg xmlns="http://www.w3.org/2000/svg" viewBox="0 0 26 26" width="208" height="208">
  <path d="M13 2C6.898438 2 2 6.898438 2 13C2 19.101563 6.898438 24 13 24C19.101563 24 24 19.101563 24 13C24 6.898438 19.101563 2 13 2 Z M 12.699219 17.601563C11.800781 17.601563 11.101563 17.5 10.601563 17.199219L10.601563 15.601563C11.199219 16 11.800781 16.199219 12.601563 16.199219C13 16.101563 14 16 14 15C14 14 12.699219 13.800781 12.199219 13.800781L11.398438 13.800781L11.398438 12.398438L12.101563 12.398438C13.199219 12.398438 13.699219 12 13.699219 11.300781C13.699219 10.601563 13.300781 10.300781 12.398438 10.300781C11.800781 10.300781 11.300781 10.5 10.800781 10.800781L10.800781 9.300781C11.398438 9 12.101563 8.898438 12.898438 8.898438C13.800781 8.898438 15.601563 9.199219 15.601563 11C15.601563 12.101563 15 12.800781 13.898438 13.101563C14.5 13.199219 15.800781 13.601563 15.800781 15.101563C15.898438 17.199219 13.699219 17.601563 12.699219 17.601563Z" fill="#0c8918" />
</svg>