<?xml version="1.0" encoding="utf-8"?>
<svg xmlns="http://www.w3.org/2000/svg" viewBox="0 0 26 26" width="208" height="208">
  <path d="M13 2C6.898438 2 2 6.898438 2 13C2 19.101563 6.898438 24 13 24C19.101563 24 24 19.101563 24 13C24 6.898438 19.101563 2 13 2 Z M 15.699219 15.898438L15.699219 17.398438L10.101563 17.398438L10.101563 16.800781C10.101563 14.101563 12.601563 13.898438 13.699219 12C13.898438 11.699219 14 10.398438 12.601563 10.398438C11.898438 10.398438 11.199219 10.699219 10.5 11.300781L10.5 9.601563C11.199219 9.101563 12.101563 8.898438 13 8.898438C13.800781 8.898438 15.699219 9.199219 15.699219 11.300781C15.699219 14 12.101563 14.898438 12.101563 15.898438Z" fill="#0c8918" />
</svg>