<?xml version="1.0" encoding="utf-8"?>
<svg xmlns="http://www.w3.org/2000/svg" viewBox="0 0 26 26" width="208" height="208">
  <path d="M13 2C6.9375 2 2 6.9375 2 13C2 19.0625 6.9375 24 13 24C19.0625 24 24 19.0625 24 13C24 6.9375 19.0625 2 13 2 Z M 13 4C17.980469 4 22 8.019531 22 13C22 17.980469 17.980469 22 13 22C8.019531 22 4 17.980469 4 13C4 8.019531 8.019531 4 13 4 Z M 12.90625 8.90625C11.804688 11.207031 9.613281 13.695313 9.3125 14.09375L9.3125 15.5L12.90625 15.5L12.90625 17.1875L14.59375 17.1875L14.59375 15.5L15.59375 15.5L15.59375 14.09375L14.59375 14.09375L14.59375 8.90625 Z M 12.90625 11.1875L12.90625 14.09375L10.90625 14.09375C11.105469 13.894531 12.207031 12.585938 12.90625 11.1875Z" fill="#ff4c00" />
</svg>