<?xml version="1.0" encoding="utf-8"?>
<svg xmlns="http://www.w3.org/2000/svg" viewBox="0 0 26 26" width="208" height="208">
  <path d="M13 2C6.9375 2 2 6.9375 2 13C2 19.0625 6.9375 24 13 24C19.0625 24 24 19.0625 24 13C24 6.9375 19.0625 2 13 2 Z M 13 4C17.980469 4 22 8.019531 22 13C22 17.980469 17.980469 22 13 22C8.019531 22 4 17.980469 4 13C4 8.019531 8.019531 4 13 4 Z M 12.3125 8.90625C11.75 8.949219 11.261719 9.085938 10.8125 9.3125L10.8125 10.8125C11.3125 10.511719 11.804688 10.3125 12.40625 10.3125C13.304688 10.3125 13.6875 10.613281 13.6875 11.3125C13.6875 12.011719 13.195313 12.40625 12.09375 12.40625L11.40625 12.40625L11.40625 13.8125L12.1875 13.8125C12.6875 13.8125 14 14 14 15C14 16 13 16.09375 12.5 16.09375C11.699219 16.09375 11.101563 15.898438 10.5 15.5L10.5 17.09375C11.101563 17.394531 11.792969 17.59375 12.59375 17.59375C13.59375 17.59375 15.8125 17.292969 15.8125 15.09375C15.8125 13.59375 14.507813 13.195313 13.90625 13.09375C15.007813 12.792969 15.59375 12.101563 15.59375 11C15.59375 9.199219 13.804688 8.90625 12.90625 8.90625C12.707031 8.90625 12.5 8.890625 12.3125 8.90625Z" fill="#ff4c00" />
</svg>