<?xml version="1.0" encoding="utf-8"?>
<svg xmlns="http://www.w3.org/2000/svg" viewBox="0 0 26 26" width="208" height="208">
  <path d="M13 2C6.9375 2 2 6.9375 2 13C2 19.0625 6.9375 24 13 24C19.0625 24 24 19.0625 24 13C24 6.9375 19.0625 2 13 2 Z M 13 4C17.980469 4 22 8.019531 22 13C22 17.980469 17.980469 22 13 22C8.019531 22 4 17.980469 4 13C4 8.019531 8.019531 4 13 4 Z M 13 9.09375C10.800781 9.09375 10.3125 10.710938 10.3125 11.3125C10.3125 12.414063 11.195313 12.988281 11.59375 13.1875C11.394531 13.289063 10 13.8125 10 15.3125C10 17.511719 12.601563 17.710938 13 17.8125C13.601563 17.8125 16 17.605469 16 15.40625C16 13.804688 14.613281 13.289063 14.3125 13.1875C14.710938 12.988281 15.6875 12.414063 15.6875 11.3125C15.6875 11.011719 15.5 9.09375 13 9.09375 Z M 13 10.3125C13.699219 10.3125 14 11.007813 14 11.40625C14 12.105469 13.5 12.5 13 12.5C12.300781 12.5 12 11.804688 12 11.40625C12 10.507813 12.699219 10.3125 13 10.3125 Z M 13 13.90625C14.101563 13.90625 14.1875 14.894531 14.1875 15.09375C14.1875 15.292969 14.101563 16.3125 13 16.3125C11.800781 16.3125 11.8125 15.292969 11.8125 15.09375C11.8125 14.492188 12.199219 13.90625 13 13.90625Z" fill="#ff4c00" />
</svg>