<?xml version="1.0" encoding="utf-8"?>
<svg xmlns="http://www.w3.org/2000/svg" viewBox="0 0 26 26" width="208" height="208">
  <path d="M13 2C6.898438 2 2 6.898438 2 13C2 19.101563 6.898438 24 13 24C19.101563 24 24 19.101563 24 13C24 6.898438 19.101563 2 13 2 Z M 12.90625 8.90625L14.59375 8.90625L14.59375 14.1875L15.59375 14.1875L15.59375 15.5L14.59375 15.5L14.59375 17.1875L12.90625 17.1875L12.90625 15.5L9.3125 15.5L9.3125 14.09375C9.613281 13.695313 11.804688 11.207031 12.90625 8.90625 Z M 12.90625 11.1875C12.207031 12.585938 11.105469 13.894531 10.90625 14.09375L12.90625 14.09375Z" fill="#0c8918" />
</svg>