<?xml version="1.0" encoding="utf-8"?>
<svg xmlns="http://www.w3.org/2000/svg" viewBox="0 0 26 26" width="208" height="208">
  <path d="M13 2C6.9375 2 2 6.9375 2 13C2 19.0625 6.9375 24 13 24C19.0625 24 24 19.0625 24 13C24 6.9375 19.0625 2 13 2 Z M 13 4C17.980469 4 22 8.019531 22 13C22 17.980469 17.980469 22 13 22C8.019531 22 4 17.980469 4 13C4 8.019531 8.019531 4 13 4 Z M 13 8.90625C12.199219 9.605469 11 10.085938 10.5 10.1875L10.5 11.8125C10.699219 11.8125 11.710938 11.59375 12.3125 11.09375L12.3125 17.59375L14.09375 17.59375L14.09375 8.90625Z" fill="#ff4c00" />
</svg>