<?xml version="1.0" encoding="utf-8"?>
<svg xmlns="http://www.w3.org/2000/svg" viewBox="0 0 26 26" width="208" height="208">
  <path d="M13 2C6.9375 2 2 6.9375 2 13C2 19.0625 6.9375 24 13 24C19.0625 24 24 19.0625 24 13C24 6.9375 19.0625 2 13 2 Z M 13 4C17.980469 4 22 8.019531 22 13C22 17.980469 17.980469 22 13 22C8.019531 22 4 17.980469 4 13C4 8.019531 8.019531 4 13 4 Z M 13.09375 8.90625C12.195313 8.90625 11.292969 9.09375 10.59375 9.59375L10.59375 11.3125C11.292969 10.710938 11.988281 10.40625 12.6875 10.40625C14.085938 10.40625 14.011719 11.699219 13.8125 12C12.710938 13.898438 10.1875 14.113281 10.1875 16.8125L10.1875 17.40625L15.8125 17.40625L15.8125 15.90625L12.1875 15.90625C12.1875 14.90625 15.8125 14.011719 15.8125 11.3125C15.8125 9.210938 13.894531 8.90625 13.09375 8.90625Z" fill="#ff4c00" />
</svg>