<?xml version="1.0" encoding="utf-8"?>
<svg xmlns="http://www.w3.org/2000/svg" viewBox="0 0 26 26" width="208" height="208">
  <path d="M13 2C6.9375 2 2 6.9375 2 13C2 19.0625 6.9375 24 13 24C19.0625 24 24 19.0625 24 13C24 6.9375 19.0625 2 13 2 Z M 13 4C17.980469 4 22 8.019531 22 13C22 17.980469 17.980469 22 13 22C8.019531 22 4 17.980469 4 13C4 8.019531 8.019531 4 13 4 Z M 10.40625 9.40625L10.40625 10.90625L14.3125 10.90625C13.914063 11.40625 12 14.414063 11.5 17.8125L13.40625 17.8125C13.804688 14.414063 15.789063 11.199219 16.1875 10.5L16.1875 9.40625Z" fill="#ff4c00" />
</svg>