<?xml version="1.0" encoding="utf-8"?>
<svg xmlns="http://www.w3.org/2000/svg" viewBox="0 0 26 26" width="208" height="208">
  <path d="M3 2C1.34375 2 0 3.34375 0 5L0 22C0 23.65625 1.34375 25 3 25L23 25C24.65625 25 26 23.65625 26 22L26 8C26 6.34375 24.65625 5 23 5L11 5C11 3.34375 9.65625 2 8 2 Z M 3 7L23 7C23.550781 7 24 7.449219 24 8L24 22C24 22.550781 23.550781 23 23 23L3 23C2.449219 23 2 22.550781 2 22L2 8C2 7.449219 2.449219 7 3 7 Z M 10 9C8.898438 9 8 9.828125 8 10.84375L8 19.15625C8 20.171875 8.898438 21 10 21L16 21C17.101563 21 18 20.171875 18 19.15625L18 13.5625C18 13.074219 17.152344 12.070313 16.28125 11.28125C16.160156 11.167969 16.027344 11.082031 15.90625 10.96875C15.78125 10.855469 15.652344 10.738281 15.53125 10.625C14.675781 9.820313 13.96875 9 13.4375 9 Z M 10 10L13.0625 10C13.828125 10 14 10.4375 14 10.96875L14 12.53125C14 12.785156 14.222656 13 14.5 13L16 13C16.496094 13 17 13.46875 17 14L17 19.09375C17 19.601563 16.550781 20.03125 16 20.03125L10 20.03125C9.449219 20.03125 9 19.601563 9 19.09375L9 10.90625C9 10.398438 9.449219 10 10 10Z" fill="#5B5B5B" />
</svg>