<?xml version="1.0" encoding="utf-8"?>
<svg xmlns="http://www.w3.org/2000/svg" viewBox="0 0 26 26" width="208" height="208">
  <path d="M13 6.15625C7.980469 6.15625 3.289063 8.652344 0.46875 12.8125C-0.0585938 13.59375 0.160156 14.628906 0.9375 15.15625C1.230469 15.355469 1.546875 15.46875 1.875 15.46875C2.421875 15.46875 2.984375 15.203125 3.3125 14.71875C3.417969 14.5625 3.546875 14.429688 3.65625 14.28125C4.996094 18.160156 8.664063 20.9375 13 20.9375C17.335938 20.9375 21.003906 18.160156 22.34375 14.28125C22.453125 14.429688 22.582031 14.5625 22.6875 14.71875C23.210938 15.496094 24.28125 15.683594 25.0625 15.15625C25.839844 14.628906 26.058594 13.589844 25.53125 12.8125C22.714844 8.648438 18.019531 6.15625 13 6.15625 Z M 16.96875 10.25C18.636719 10.847656 20.125 11.839844 21.375 13.125C20.441406 16.882813 17.042969 19.6875 13 19.6875C8.957031 19.6875 5.558594 16.882813 4.625 13.125C5.867188 11.847656 7.375 10.882813 9.03125 10.28125C8.496094 11.054688 8.1875 11.988281 8.1875 13C8.1875 15.65625 10.34375 17.8125 13 17.8125C15.65625 17.8125 17.8125 15.65625 17.8125 13C17.8125 11.980469 17.511719 11.027344 16.96875 10.25Z" fill="#5B5B5B" />
</svg>