<?xml version="1.0" encoding="utf-8"?>
<svg xmlns="http://www.w3.org/2000/svg" viewBox="0 0 26 26" width="208" height="208">
  <path d="M19.625 0.15625C17.996094 0.234375 16.429688 0.945313 15.21875 2.15625L10.46875 6.90625C11.214844 6.15625 13.984375 6.671875 14.65625 7.34375L17.53125 4.46875C18.167969 3.832031 18.964844 3.441406 19.78125 3.40625C20.335938 3.378906 21.121094 3.496094 21.8125 4.1875C22.457031 4.832031 22.59375 5.582031 22.59375 6.09375C22.59375 6.949219 22.203125 7.800781 21.53125 8.46875L16.53125 13.5C15.273438 14.757813 13.359375 14.859375 12.25 13.75C11.617188 13.117188 10.574219 13.113281 9.9375 13.75C9.300781 14.386719 9.300781 15.425781 9.9375 16.0625C11.078125 17.203125 12.578125 17.78125 14.125 17.78125C15.796875 17.78125 17.503906 17.097656 18.8125 15.78125L23.84375 10.78125C25.121094 9.507813 25.84375 7.804688 25.84375 6.09375C25.84375 4.503906 25.242188 2.992188 24.125 1.875C22.929688 0.679688 21.324219 0.078125 19.625 0.15625 Z M 11.875 8.21875C10.203125 8.21875 8.46875 8.90625 7.15625 10.21875L2.15625 15.21875C0.878906 16.492188 0.15625 18.195313 0.15625 19.90625C0.15625 21.496094 0.757813 23.007813 1.875 24.125C3.070313 25.320313 4.675781 25.921875 6.375 25.84375C8.003906 25.765625 9.570313 25.054688 10.78125 23.84375L15.53125 19.09375C14.78125 19.84375 12.015625 19.328125 11.34375 18.65625L8.46875 21.53125C7.832031 22.167969 7.035156 22.554688 6.21875 22.59375C5.664063 22.621094 4.878906 22.503906 4.1875 21.8125C3.542969 21.167969 3.40625 20.414063 3.40625 19.90625C3.40625 19.050781 3.796875 18.199219 4.46875 17.53125L9.46875 12.5C10.726563 11.242188 12.640625 11.144531 13.75 12.25C14.386719 12.886719 15.429688 12.886719 16.0625 12.25C16.699219 11.613281 16.699219 10.574219 16.0625 9.9375C14.921875 8.796875 13.417969 8.21875 11.875 8.21875Z" fill="#5B5B5B" />
</svg>