<?xml version="1.0" encoding="utf-8"?>
<svg xmlns="http://www.w3.org/2000/svg" viewBox="0 0 26 26" width="104" height="104">
  <path
    d="M10 0L0 2L3.03125 5.03125C1.273438 7.222656 0.1875 9.972656 0.1875 13C0.1875 20.074219 5.921875 25.8125 13 25.8125C20.078125 25.8125 25.8125 20.074219 25.8125 13C25.8125 7.695313 22.59375 3.132813 18 1.1875L18 4.28125C21.027344 6.019531 23.0625 9.261719 23.0625 13C23.0625 18.5625 18.5625 23.0625 13 23.0625C7.4375 23.0625 2.9375 18.5625 2.9375 13C2.9375 10.726563 3.695313 8.652344 4.96875 6.96875L8 10Z"
    fill="#DDDDDD" />
</svg>