<?xml version="1.0" encoding="utf-8"?>
<svg xmlns="http://www.w3.org/2000/svg" viewBox="0 0 26 26" width="208" height="208">
  <path d="M11.46875 0.96875L10.90625 4.53125C10.050781 4.742188 9.234375 5.058594 8.5 5.5L5.5625 3.40625L3.4375 5.53125L5.5 8.46875C5.054688 9.207031 4.714844 10.015625 4.5 10.875L0.96875 11.46875L0.96875 14.46875L4.5 15.09375C4.714844 15.953125 5.054688 16.761719 5.5 17.5L3.40625 20.4375L5.53125 22.5625L8.46875 20.5C9.203125 20.941406 10.019531 21.257813 10.875 21.46875L11.46875 25.03125L14.46875 25.03125L15.125 21.46875C15.976563 21.253906 16.769531 20.914063 17.5 20.46875L20.46875 22.5625L22.59375 20.4375L20.46875 17.5C20.90625 16.769531 21.257813 15.972656 21.46875 15.125L25.03125 14.46875L25.03125 11.46875L21.46875 10.875C21.257813 10.027344 20.90625 9.230469 20.46875 8.5L22.5625 5.53125L20.4375 3.40625L17.5 5.53125C16.769531 5.089844 15.949219 4.746094 15.09375 4.53125L14.46875 0.96875 Z M 13 6.46875C16.605469 6.46875 19.53125 9.394531 19.53125 13C19.53125 16.605469 16.605469 19.53125 13 19.53125C9.394531 19.53125 6.46875 16.601563 6.46875 13C6.46875 9.398438 9.394531 6.46875 13 6.46875 Z M 13 8.0625C10.28125 8.0625 8.0625 10.28125 8.0625 13C8.0625 15.71875 10.28125 17.9375 13 17.9375C15.71875 17.9375 17.9375 15.71875 17.9375 13C17.9375 10.28125 15.71875 8.0625 13 8.0625 Z M 12.96875 10.9375C14.113281 10.9375 15.0625 11.851563 15.0625 13C15.0625 14.144531 14.113281 15.0625 12.96875 15.0625C11.824219 15.0625 10.90625 14.144531 10.90625 13C10.90625 11.851563 11.824219 10.9375 12.96875 10.9375Z" fill="#5B5B5B" />
</svg>