<?xml version="1.0" encoding="utf-8"?>
<svg xmlns="http://www.w3.org/2000/svg" viewBox="0 0 26 26" width="208" height="208">
  <path
    d="M11.5 -0.03125C9.542969 -0.03125 7.96875 1.59375 7.96875 3.5625L7.96875 4L4 4C3.449219 4 3 4.449219 3 5L3 6L2 6L2 8L4 8L4 23C4 24.644531 5.355469 26 7 26L19 26C20.644531 26 22 24.644531 22 23L22 8L24 8L24 6L23 6L23 5C23 4.449219 22.550781 4 22 4L18.03125 4L18.03125 3.5625C18.03125 1.59375 16.457031 -0.03125 14.5 -0.03125 Z M 11.5 2.03125L14.5 2.03125C15.304688 2.03125 15.96875 2.6875 15.96875 3.5625L15.96875 4L10.03125 4L10.03125 3.5625C10.03125 2.6875 10.695313 2.03125 11.5 2.03125 Z M 6 8L11.125 8C11.25 8.011719 11.371094 8.03125 11.5 8.03125L14.5 8.03125C14.628906 8.03125 14.75 8.011719 14.875 8L20 8L20 23C20 23.5625 19.5625 24 19 24L7 24C6.4375 24 6 23.5625 6 23 Z M 8 10L8 22L10 22L10 10 Z M 12 10L12 22L14 22L14 10 Z M 16 10L16 22L18 22L18 10Z"
    fill="#DDDDDD" />
</svg>